<svg width="20" height="20" viewBox="0 0 20 20" fill="none" xmlns="http://www.w3.org/2000/svg">
<g clip-path="url(#clip0_125_290)">
<path d="M1.36364 20H4.54545V9.69697L0 5.15152V18.1818C0 19.1879 0.611364 20 1.36364 20Z" fill="#4285F4"/>
<path d="M15.4546 20H18.6364C19.391 20 20 19.1849 20 18.1818V5.15152L15.4546 9.69697" fill="#34A853"/>
<path d="M15.4546 1.81818V9.69697L20 5.15152V2.72727C20 0.478788 18.075 -0.80303 16.7273 0.545455" fill="#FBBC04"/>
<path d="M4.54541 9.69696V1.81818L9.99996 7.27272L15.4545 1.81818V9.69696L9.99996 15.1515" fill="#EA4335"/>
<path d="M0 2.72727V5.15152L4.54545 9.69697V1.81818L3.27273 0.545455C1.92273 -0.80303 0 0.478788 0 2.72727Z" fill="#C5221F"/>
</g>
<defs>
<clipPath id="clip0_125_290">
<rect width="20" height="20" fill="white"/>
</clipPath>
</defs>
</svg>
