<svg width="25" height="25" viewBox="0 0 25 25" fill="none" xmlns="http://www.w3.org/2000/svg">
<path d="M3.99809 1.02743C3.33956 1.28358 2.78265 1.62511 2.22574 2.18213C1.66883 2.73509 1.32736 3.29618 1.07127 3.95078C0.823298 4.58506 0.656631 5.31285 0.607851 6.37811C0.55907 7.44336 0.546875 7.7849 0.546875 10.5009C0.546875 13.2169 0.55907 13.5584 0.607851 14.6237C0.656631 15.6889 0.827363 16.4167 1.07127 17.051C1.32736 17.7097 1.66883 18.2667 2.22574 18.8237C2.78265 19.3807 3.33956 19.7223 3.99809 19.9784C4.63224 20.2264 5.35988 20.3932 6.42492 20.4419C7.48996 20.4907 7.83143 20.5029 10.5469 20.5029C13.2623 20.5029 13.6038 20.4907 14.6688 20.4419C15.7339 20.3932 16.4615 20.2224 17.0957 19.9784C17.7542 19.7223 18.3111 19.3807 18.868 18.8237C19.4249 18.2667 19.7664 17.7097 20.0225 17.051C20.2705 16.4167 20.4371 15.6889 20.4859 14.6237C20.5347 13.5584 20.5469 13.2169 20.5469 10.5009C20.5469 7.7849 20.5347 7.44336 20.4859 6.37811C20.4371 5.31285 20.2664 4.58506 20.0225 3.95078C19.7664 3.29618 19.4249 2.73509 18.8721 2.18213C18.3152 1.62511 17.7583 1.28358 17.0997 1.02743C16.4656 0.779409 15.7379 0.612708 14.6729 0.563918C13.6079 0.515127 13.2664 0.50293 10.5509 0.50293C7.83549 0.50293 7.49403 0.515127 6.42899 0.563918C5.35988 0.608642 4.63224 0.779409 3.99809 1.02743ZM14.5875 2.36103C15.5631 2.40576 16.0916 2.56839 16.4452 2.70663C16.9127 2.88959 17.2461 3.10508 17.5957 3.45475C17.9452 3.80441 18.1607 4.13781 18.3436 4.60539C18.4818 4.95912 18.6444 5.48768 18.6891 6.46349C18.7379 7.51655 18.7461 7.83369 18.7461 10.505C18.7461 13.1762 18.7339 13.4934 18.6891 14.5464C18.6444 15.5222 18.4818 16.0508 18.3436 16.4045C18.1607 16.8721 17.9452 17.2055 17.5957 17.5552C17.2461 17.9048 16.9127 18.1203 16.4452 18.3033C16.0916 18.4415 15.5631 18.6042 14.5875 18.6489C13.5347 18.6977 13.2176 18.7058 10.5469 18.7058C7.87614 18.7058 7.55907 18.6936 6.50622 18.6489C5.53061 18.6042 5.00216 18.4415 4.6485 18.3033C4.18102 18.1203 3.84769 17.9048 3.49809 17.5552C3.1485 17.2055 2.93305 16.8721 2.75013 16.4045C2.61192 16.0508 2.44931 15.5222 2.4046 14.5464C2.35582 13.4934 2.34769 13.1762 2.34769 10.505C2.34769 7.83369 2.35988 7.51655 2.4046 6.46349C2.44931 5.48768 2.61192 4.95912 2.75013 4.60539C2.93305 4.13781 3.1485 3.80441 3.49809 3.45475C3.84769 3.10508 4.18102 2.88959 4.6485 2.70663C5.00216 2.56839 5.53061 2.40576 6.50622 2.36103C7.55907 2.31224 7.87614 2.30411 10.5469 2.30411C13.2176 2.30411 13.5347 2.31224 14.5875 2.36103Z" fill="url(#paint0_radial_125_283)"/>
<path d="M5.4126 10.505C5.4126 13.3429 7.71341 15.6401 10.5467 15.6401C13.3801 15.6401 15.6809 13.3389 15.6809 10.505C15.6809 7.67105 13.3841 5.36977 10.5467 5.36977C7.70935 5.36977 5.4126 7.66698 5.4126 10.505ZM13.8801 10.505C13.8801 12.3468 12.3882 13.839 10.5467 13.839C8.70528 13.839 7.21341 12.3468 7.21341 10.505C7.21341 8.66312 8.70528 7.17095 10.5467 7.17095C12.3882 7.17095 13.8801 8.66312 13.8801 10.505Z" fill="url(#paint1_radial_125_283)"/>
<path d="M15.8884 6.3659C16.5507 6.3659 17.0876 5.8289 17.0876 5.16647C17.0876 4.50404 16.5507 3.96704 15.8884 3.96704C15.2261 3.96704 14.6892 4.50404 14.6892 5.16647C14.6892 5.8289 15.2261 6.3659 15.8884 6.3659Z" fill="#654C9F"/>
<defs>
<radialGradient id="paint0_radial_125_283" cx="0" cy="0" r="1" gradientUnits="userSpaceOnUse" gradientTransform="translate(0.910776 18.6718) rotate(-3.0007) scale(28.9152 24.5826)">
<stop stop-color="#FED576"/>
<stop offset="0.2634" stop-color="#F47133"/>
<stop offset="0.6091" stop-color="#BC3081"/>
<stop offset="1" stop-color="#4C63D2"/>
</radialGradient>
<radialGradient id="paint1_radial_125_283" cx="0" cy="0" r="1" gradientUnits="userSpaceOnUse" gradientTransform="translate(5.59883 14.6984) rotate(-3.0007) scale(14.8484 12.6235)">
<stop stop-color="#FED576"/>
<stop offset="0.2634" stop-color="#F47133"/>
<stop offset="0.6091" stop-color="#BC3081"/>
<stop offset="1" stop-color="#4C63D2"/>
</radialGradient>
</defs>
</svg>
